<svg version="1.1" id="Layer_1" xmlns="http://www.w3.org/2000/svg" xmlns:xlink="http://www.w3.org/1999/xlink" x="0px" y="0px"
	 width="100%" viewBox="0 0 3840 1080" enable-background="new 0 0 3840 1080" xml:space="preserve">
<path fill="#000000" opacity="0.000000" stroke="none" 
	d="
M2465.000000,1081.000000 
	C1643.333374,1081.000000 822.166687,1081.000000 1.000000,1081.000000 
	C1.000000,721.000000 1.000000,361.000000 1.000000,1.000000 
	C1281.000000,1.000000 2561.000000,1.000000 3841.000000,1.000000 
	C3841.000000,361.000000 3841.000000,721.000000 3841.000000,1081.000000 
	C3382.500000,1081.000000 2924.000000,1081.000000 2465.000000,1081.000000 
M2086.087158,469.530731 
	C2086.375000,470.045197 2086.662842,470.559692 2087.113281,471.848419 
	C2090.878906,486.293884 2091.628662,500.953033 2090.757080,515.133057 
	C2072.008057,516.107666 2053.787354,516.605835 2035.653320,518.131470 
	C2019.494629,519.491028 2003.323364,521.359985 1987.349731,524.116882 
	C1957.093628,529.338989 1928.011719,538.334167 1901.028198,553.439270 
	C1883.012695,563.524231 1867.199219,576.223633 1854.267212,592.315613 
	C1843.931641,605.176819 1836.276367,619.496826 1831.720093,635.476868 
	C1828.557983,646.567322 1826.887329,657.780823 1825.713257,669.262146 
	C1824.449829,681.616943 1826.145630,693.509888 1827.801880,705.538574 
	C1829.775146,719.870178 1835.583496,732.822876 1842.151367,746.280762 
	C1842.553711,746.938049 1842.956055,747.595337 1843.295166,748.313599 
	C1843.295166,748.313599 1843.382935,748.311279 1843.198120,749.142822 
	C1849.814087,771.859253 1863.184082,790.220764 1881.021729,805.159485 
	C1906.089355,826.153198 1936.034912,833.989563 1968.089233,834.954956 
	C1986.211670,835.500916 2003.956177,833.075867 2021.488037,828.166565 
	C2048.021973,820.736450 2071.096680,807.536011 2090.917969,788.532410 
	C2094.730713,784.876831 2098.210205,780.873779 2102.247559,777.763672 
	C2102.831543,782.252625 2103.699463,786.726868 2103.932373,791.233948 
	C2104.277344,797.914368 2104.085938,797.922058 2110.969238,798.007812 
	C2111.628906,798.016052 2112.288330,798.076355 2112.980469,798.985352 
	C2113.654053,805.561340 2114.654297,812.125732 2114.889160,818.717346 
	C2115.053711,823.329346 2116.438721,825.146057 2121.325684,825.093567 
	C2142.141846,824.870239 2162.962158,825.005371 2183.780762,824.984985 
	C2185.383301,824.983459 2186.986084,824.791077 2188.774658,824.675354 
	C2188.116211,817.595398 2187.409180,811.048340 2186.915527,804.485291 
	C2185.562256,786.500916 2183.305176,768.516846 2183.178711,750.520081 
	C2182.724121,685.902100 2183.041260,621.278931 2182.956299,556.657837 
	C2182.944580,547.708008 2182.366699,538.756470 2181.948730,529.810547 
	C2181.748291,525.512390 2181.745361,521.137390 2180.899414,516.949402 
	C2178.056885,502.878448 2175.337158,488.752747 2171.635498,474.897797 
	C2169.708496,467.684326 2165.821533,460.994446 2162.891602,454.032837 
	C2162.891602,454.032837 2162.877686,454.111511 2162.877686,453.482697 
	C2162.512939,453.044556 2162.148193,452.606445 2161.210693,451.631653 
	C2159.223389,445.610382 2157.327393,439.557129 2155.232666,433.573517 
	C2147.238525,410.739716 2132.217041,392.656067 2113.925049,377.868774 
	C2087.307373,356.350677 2055.281494,347.890717 2021.715454,346.277740 
	C2003.287231,345.392151 1984.692871,346.890045 1966.232300,348.165375 
	C1955.705933,348.892578 1945.173340,350.782898 1934.861694,353.114502 
	C1911.218140,358.460693 1888.411743,366.311218 1867.058716,377.997894 
	C1863.371094,380.016174 1859.750854,382.157471 1856.133057,384.222717 
	C1862.166870,401.746979 1868.021118,418.845428 1874.017578,435.893951 
	C1874.331909,436.787689 1875.854370,437.256561 1876.960571,438.704224 
	C1879.792236,447.473022 1882.623901,456.241852 1885.571167,465.368286 
	C1887.349976,464.610321 1888.560791,464.180084 1889.693604,463.598083 
	C1898.519653,459.063293 1907.119019,454.016571 1916.187866,450.038666 
	C1939.438110,439.840454 1964.029907,434.547882 1989.250244,433.251587 
	C2002.738525,432.558289 2016.512573,433.261597 2029.875244,435.240448 
	C2051.148438,438.390778 2069.542969,447.701965 2082.789795,465.477875 
	C2083.742920,466.756989 2085.026367,467.789948 2086.101318,468.983765 
	C2086.101318,468.983765 2086.089844,468.912598 2086.087158,469.530731 
M3363.058105,149.167816 
	C3363.744385,154.538879 3364.430664,159.909958 3365.038330,165.966385 
	C3365.088379,166.421356 3365.138428,166.876328 3365.047119,168.179749 
	C3365.083496,172.342636 3365.119629,176.505508 3365.496826,181.653320 
	C3365.998291,183.861404 3366.835205,186.053192 3366.943115,188.280365 
	C3367.415527,198.015991 3367.674316,207.761948 3368.016602,217.503937 
	C3368.039551,218.160629 3368.089355,218.818314 3368.166260,219.470856 
	C3370.110840,235.981186 3372.282471,252.468979 3373.919189,269.009674 
	C3374.764160,277.548798 3374.381836,286.204102 3375.067871,294.765747 
	C3375.715332,302.845795 3377.189209,310.856384 3378.009277,318.927002 
	C3378.591797,324.662415 3378.659668,330.448792 3379.017578,336.208649 
	C3379.351562,341.579498 3381.581299,346.244385 3384.873047,350.353882 
	C3393.196777,360.745758 3405.162354,363.790100 3417.414551,364.793701 
	C3428.274658,365.683258 3439.005859,363.023285 3448.137939,356.842957 
	C3453.758789,353.038940 3459.076904,347.791199 3459.910156,340.653320 
	C3461.201660,329.594482 3461.351074,318.402344 3462.735107,306.923340 
	C3463.442139,300.707336 3464.149170,294.491333 3464.975586,287.363342 
	C3465.316895,282.105103 3465.548340,276.836914 3466.022949,271.590759 
	C3466.875244,262.174438 3467.799805,252.763229 3468.832031,243.365021 
	C3469.791016,234.633301 3471.279785,225.946075 3471.899414,217.194229 
	C3472.623535,206.964325 3472.657227,196.685593 3472.998047,186.428299 
	C3473.020264,185.766479 3473.080322,185.102753 3473.172119,184.446884 
	C3474.448975,175.320755 3476.062744,166.227005 3476.932129,157.062561 
	C3477.953857,146.288223 3477.735352,135.371994 3479.186523,124.670753 
	C3480.241699,116.887253 3479.581787,110.112717 3475.514648,103.289383 
	C3468.652344,91.776001 3458.115723,84.794212 3445.969971,81.374756 
	C3437.009766,78.852211 3427.115723,79.283325 3417.625732,79.125771 
	C3410.426514,79.006233 3403.016602,79.177376 3396.039551,80.736076 
	C3383.483154,83.541122 3373.372803,91.023438 3365.724854,101.159714 
	C3361.717285,106.470924 3359.456543,113.136238 3360.083008,120.109070 
	C3360.929443,129.530655 3362.149902,138.918610 3363.058105,149.167816 
M3478.985840,870.833313 
	C3478.249268,864.341125 3477.512451,857.848877 3476.924316,850.403015 
	C3476.895508,847.250244 3477.168213,844.059753 3476.780518,840.951782 
	C3475.660400,831.971191 3473.845703,823.059082 3473.105469,814.054077 
	C3472.252930,803.686523 3472.255371,793.248535 3471.896484,782.840820 
	C3471.873779,782.181824 3472.032959,781.508118 3471.951416,780.860901 
	C3469.980225,765.187073 3467.814697,749.535156 3466.071533,733.836243 
	C3465.200439,725.991089 3465.093994,718.061096 3464.879883,709.499512 
	C3464.593018,705.813171 3464.475342,702.102112 3463.942139,698.451721 
	C3463.703125,696.814026 3462.633057,695.297668 3461.991943,692.827271 
	C3461.643799,683.233032 3461.404053,673.632812 3460.874512,664.048584 
	C3460.735596,661.532227 3460.137451,658.843262 3459.004883,656.611816 
	C3451.412354,641.650452 3437.400146,637.426392 3422.362305,636.178528 
	C3411.679443,635.292175 3401.345459,638.064270 3392.217285,644.058777 
	C3385.380859,648.548279 3379.657227,654.641174 3379.259521,662.891357 
	C3378.540283,677.805786 3377.557129,692.599121 3375.125000,707.371216 
	C3373.296143,718.481384 3372.600830,729.825806 3372.111084,741.096802 
	C3371.498291,755.209351 3370.549561,769.178040 3368.370117,783.216064 
	C3366.397461,795.925476 3367.756104,809.088379 3365.136475,821.945312 
	C3363.679443,829.096069 3363.442627,836.528259 3363.042969,843.854736 
	C3362.234131,858.675354 3361.671387,873.509583 3361.069336,888.340698 
	C3361.018799,889.585693 3361.058838,891.099365 3361.698242,892.062927 
	C3365.000244,897.041870 3367.946289,902.438477 3372.080811,906.642334 
	C3378.518311,913.187378 3386.340820,918.501282 3395.546387,919.814209 
	C3406.094482,921.318665 3416.859375,921.271423 3427.521484,922.017029 
	C3440.982422,922.958435 3452.795410,918.437805 3463.403076,910.727173 
	C3471.379639,904.929016 3477.887695,897.625305 3479.057129,887.293030 
	C3479.637451,882.163940 3478.967041,876.893311 3478.985840,870.833313 
M2381.035889,423.096588 
	C2380.387207,409.508636 2379.738525,395.920654 2379.072266,381.969910 
	C2375.072266,381.969910 2372.108154,381.969910 2369.027100,381.043030 
	C2368.844727,372.497284 2368.662354,363.951538 2368.478760,355.351013 
	C2344.067627,355.351013 2320.681885,355.351013 2296.599609,355.351013 
	C2297.088379,360.651215 2297.718994,365.541840 2297.958984,370.451538 
	C2298.717529,385.978973 2299.623291,401.507629 2299.935547,417.046600 
	C2300.496338,444.959106 2300.919922,472.879150 2300.954102,500.796570 
	C2301.072998,597.779663 2301.000000,694.762939 2301.000000,791.746155 
	C2301.000000,793.692627 2301.000000,795.639099 2301.000000,798.101746 
	C2305.018555,798.101746 2308.482178,798.101746 2311.979736,799.024902 
	C2311.986572,805.857300 2312.265869,812.704163 2311.903320,819.516907 
	C2311.664307,824.011353 2313.217285,825.131714 2317.560059,825.093445 
	C2340.388672,824.892334 2363.220215,825.001465 2386.050537,824.998779 
	C2392.993896,824.997986 2392.999023,824.992188 2392.999023,817.912720 
	C2393.000488,738.089661 2392.870605,658.266113 2393.156494,578.444092 
	C2393.194092,567.930542 2394.782715,557.321899 2396.650391,546.936707 
	C2400.427246,525.937134 2408.525146,506.462250 2422.035645,489.954315 
	C2429.613281,480.695312 2438.577881,472.092529 2448.335938,465.202606 
	C2465.609131,453.006317 2485.784424,448.889099 2506.756348,449.069275 
	C2514.624512,449.136841 2522.485840,449.990631 2530.658691,450.505402 
	C2530.658691,425.116852 2530.658691,399.887848 2530.658691,374.472015 
	C2526.946533,373.937256 2523.536133,373.445923 2520.023926,372.027863 
	C2520.023926,363.759796 2520.023926,355.491760 2520.023926,346.901733 
	C2517.493652,346.901733 2515.673828,346.883179 2513.854248,346.904755 
	C2501.340088,347.053101 2488.709961,346.202362 2476.341064,347.621857 
	C2461.268555,349.351562 2447.526611,355.750153 2434.582031,363.741364 
	C2421.106445,372.060486 2409.252686,382.294556 2399.788574,394.876709 
	C2392.874023,404.069397 2387.293701,414.265839 2381.035889,423.096588 
M963.030151,174.050339 
	C963.030151,165.458527 963.030151,156.866714 963.030151,148.251953 
	C935.688416,148.251953 909.094910,148.251953 882.287842,148.251953 
	C882.287842,364.865173 882.287842,581.225281 882.287842,798.122498 
	C886.031677,798.122498 889.493652,798.122498 892.982361,799.042908 
	C892.988403,805.873474 893.270508,812.718933 892.903137,819.529358 
	C892.659729,824.041565 894.245850,825.130737 898.569458,825.092712 
	C921.225342,824.893738 943.883911,825.018982 966.541504,824.989990 
	C974.815918,824.979370 973.989319,825.778198 973.989807,817.426025 
	C974.002808,606.843445 974.000000,396.260803 974.000000,185.678207 
	C974.000000,175.048248 974.000000,175.048248 963.030151,174.050339 
M748.010559,174.008194 
	C748.010559,165.419617 748.010559,156.831055 748.010559,148.268280 
	C720.322632,148.268280 693.397461,148.268280 666.291748,148.268280 
	C666.291748,364.887939 666.291748,581.238281 666.291748,798.141052 
	C670.038208,798.141052 673.500000,798.141052 676.982300,799.059143 
	C676.987488,805.890564 677.272827,812.737427 676.899414,819.548096 
	C676.650452,824.088379 678.287354,825.127075 682.583862,825.090820 
	C705.575928,824.896912 728.570557,825.018921 751.564270,824.989563 
	C759.806335,824.979004 758.992310,825.793884 758.992859,817.407227 
	C759.005432,606.964478 759.002686,396.521698 759.002686,186.078949 
	C759.002686,175.151260 759.002747,175.151260 748.010559,174.008194 
M2719.026611,278.033600 
	C2719.026611,268.243286 2719.026611,258.452942 2719.026611,248.323624 
	C2692.473633,256.404846 2666.326416,264.362488 2639.762207,272.447083 
	C2639.762207,300.002686 2639.762207,327.375793 2639.762207,355.292145 
	C2616.555664,355.292145 2593.857910,355.292145 2571.290527,355.292145 
	C2571.290527,376.093597 2571.290527,396.341461 2571.290527,417.086212 
	C2575.034424,417.086212 2578.493652,417.086212 2581.985596,418.012390 
	C2581.990967,424.995331 2582.186035,431.985321 2581.926514,438.958405 
	C2581.781738,442.838013 2582.975342,444.130463 2586.969238,444.087860 
	C2604.590576,443.899933 2622.215576,444.018311 2639.969482,444.951843 
	C2639.979492,521.615295 2639.861328,598.279236 2640.136719,674.941711 
	C2640.178467,686.591675 2641.281250,698.365784 2643.247070,709.850708 
	C2646.168213,726.916992 2650.934082,743.556519 2659.979248,759.496155 
	C2661.393799,763.723511 2662.556641,768.055664 2664.266357,772.160034 
	C2671.670898,789.937195 2682.302246,805.318176 2698.791992,815.835938 
	C2718.987305,828.717346 2741.365723,834.758423 2765.181396,834.869812 
	C2777.568359,834.927734 2790.082520,834.487732 2802.317627,832.730042 
	C2814.354492,831.000793 2826.127930,827.388367 2837.963379,824.389404 
	C2839.115723,824.097351 2840.757568,822.267029 2840.707764,821.219971 
	C2839.942139,805.027222 2838.983643,788.842896 2837.943359,772.664673 
	C2837.723389,769.245483 2836.999268,765.858704 2836.449707,762.056335 
	C2833.514648,762.724243 2830.817871,763.337891 2828.023438,763.092163 
	C2827.268311,753.790344 2826.512939,744.488525 2825.719727,734.715942 
	C2809.893555,739.604553 2794.028320,740.152344 2778.035156,740.069946 
	C2759.629150,739.975098 2743.909180,734.625610 2732.963135,718.157471 
	C2731.975586,708.619568 2730.158203,699.084045 2730.130615,689.543396 
	C2729.900879,609.744751 2730.056885,529.945007 2729.871338,450.146118 
	C2729.858887,444.844635 2731.552002,443.874451 2736.387207,443.901733 
	C2770.371826,444.093475 2804.357666,444.004913 2838.343262,444.001923 
	C2844.992920,444.001343 2844.997559,443.993164 2844.999023,437.134247 
	C2845.002197,422.473846 2845.000000,407.813416 2845.000000,393.153015 
	C2845.000000,382.096252 2845.000000,382.096252 2834.025146,381.034821 
	C2834.025146,372.452606 2834.025146,363.870361 2834.025146,354.999908 
	C2831.320068,354.999908 2829.343994,355.002747 2827.367920,354.999512 
	C2794.919434,354.946564 2762.470703,354.892822 2730.011230,353.923920 
	C2730.011230,327.903412 2730.011230,301.882904 2730.011230,275.169769 
	C2725.946533,276.586884 2722.543945,277.773254 2719.026611,278.033600 
M1659.206909,821.465210 
	C1659.370361,821.810242 1659.635010,821.927795 1660.927490,821.965820 
	C1687.519775,821.965820 1714.111938,821.965820 1741.534180,821.965820 
	C1741.009521,805.891113 1740.533203,790.484863 1739.997192,775.080750 
	C1739.363037,756.854187 1738.930542,738.615784 1737.945557,720.407654 
	C1736.899292,701.068298 1735.681763,681.722839 1733.848999,662.445679 
	C1732.052002,643.545776 1729.666016,624.689331 1727.028809,605.885254 
	C1724.022949,584.452637 1721.065063,562.981079 1716.968140,541.742126 
	C1712.230469,517.182678 1706.848511,492.713257 1700.726562,468.462158 
	C1688.120117,418.524414 1671.115356,370.226227 1644.829712,325.586517 
	C1632.858765,305.256744 1618.654907,286.899933 1599.080566,273.295959 
	C1582.587158,261.833252 1564.568115,257.349976 1544.608032,261.931000 
	C1525.192139,266.387146 1510.266724,277.935181 1497.040405,291.970367 
	C1481.032471,308.957245 1468.077271,328.241119 1458.453735,349.415588 
	C1448.343628,371.661102 1439.299805,394.409271 1430.370605,417.165588 
	C1426.117065,428.005493 1423.209595,439.373566 1419.538574,450.989288 
	C1418.950562,449.472626 1418.488403,448.441101 1418.145264,447.371338 
	C1413.618286,433.256836 1409.571899,418.967590 1404.492676,405.055237 
	C1395.186646,379.564697 1384.874634,354.456665 1370.861938,331.105377 
	C1357.384521,308.645660 1341.943237,287.775238 1319.729980,273.009979 
	C1301.842896,261.120300 1282.537598,256.641113 1261.433105,262.929504 
	C1243.974731,268.131561 1230.755127,279.571411 1218.690308,292.467377 
	C1202.908081,309.336670 1191.473755,329.190033 1181.320435,349.730530 
	C1165.354736,382.029724 1153.251831,415.857880 1143.436890,450.471649 
	C1133.959961,483.893890 1126.144653,517.730164 1120.791260,552.078003 
	C1117.254272,574.771667 1114.016602,597.515198 1110.935059,620.275635 
	C1108.719604,636.640442 1106.738525,653.045654 1105.102295,669.477600 
	C1103.448975,686.080017 1102.082520,702.721619 1101.081909,719.375610 
	C1100.077881,736.089966 1099.443481,752.835815 1099.085815,769.577209 
	C1098.754883,785.068970 1099.004517,800.573181 1098.998779,816.071899 
	C1098.998169,817.650024 1098.998779,819.228088 1098.998779,820.727417 
	C1126.423584,820.727417 1153.041992,820.727417 1179.794922,820.727417 
	C1179.936401,818.991394 1180.056763,817.515259 1180.419067,815.816223 
	C1180.559937,815.469604 1180.480713,815.184204 1180.091919,814.048401 
	C1180.121460,810.373840 1180.151001,806.699280 1180.550293,802.516479 
	C1180.431763,801.336731 1180.313354,800.156921 1180.102173,798.155457 
	C1180.130127,796.779114 1180.158081,795.402710 1180.540283,793.582886 
	C1180.420654,792.712891 1180.300903,791.842957 1180.090820,790.188843 
	C1180.120728,789.138367 1180.150757,788.087891 1180.520264,786.680054 
	C1180.730591,786.409546 1180.834351,786.102966 1180.852051,784.853455 
	C1181.428955,760.922119 1182.005859,736.990723 1182.843750,712.216248 
	C1182.796753,710.457825 1182.749756,708.699463 1182.795410,706.015564 
	C1183.451294,694.510742 1184.110229,683.006104 1184.761475,671.501038 
	C1185.098511,665.548340 1185.312744,659.586487 1185.769653,653.643188 
	C1187.689941,628.663940 1189.530884,603.677002 1191.695435,578.718506 
	C1193.277222,560.479492 1194.764404,542.202820 1197.298096,524.083313 
	C1200.358032,502.200867 1204.314697,480.437592 1208.180420,458.675537 
	C1213.344238,429.606598 1219.740112,400.792511 1229.180664,372.791016 
	C1236.248535,351.826935 1243.528931,330.848480 1258.063110,313.446106 
	C1268.920776,300.445892 1281.431763,296.155884 1295.501831,308.101288 
	C1299.730957,311.691803 1303.673096,315.865082 1306.862427,320.394165 
	C1321.964722,341.840363 1329.814453,366.543030 1336.896606,391.331696 
	C1347.407104,428.120483 1355.055908,465.577789 1360.061523,503.548767 
	C1362.217285,519.901917 1364.989624,536.179993 1366.856323,552.563354 
	C1369.194702,573.085938 1371.142944,593.661499 1372.791626,614.251648 
	C1374.436768,634.799255 1375.623047,655.386475 1376.758423,675.970276 
	C1377.143188,682.945801 1376.759521,689.963745 1376.541870,697.243347 
	C1376.716919,697.483398 1376.891846,697.723389 1377.625488,698.591064 
	C1378.003906,726.050903 1378.382324,753.510742 1378.600830,781.264526 
	C1378.818848,781.452209 1379.036865,781.639832 1380.154297,781.938049 
	C1405.149902,781.958984 1430.145874,781.915283 1455.140625,782.071716 
	C1458.833740,782.094788 1460.127563,780.969055 1460.072754,777.245789 
	C1459.906128,765.916809 1459.916382,754.582153 1460.072388,743.252625 
	C1460.197632,734.153564 1460.635864,725.058838 1461.254028,715.846436 
	C1461.320068,715.755432 1461.451904,715.654236 1461.439575,715.575439 
	C1461.407349,715.367065 1461.312622,715.168335 1461.149048,714.037231 
	C1461.493774,703.257874 1461.754395,692.475037 1462.204712,681.700134 
	C1462.771240,668.145752 1463.258545,654.581482 1464.202515,641.050964 
	C1465.630859,620.579041 1466.931396,600.078186 1469.179688,579.688171 
	C1472.365356,550.797852 1475.958252,521.937927 1480.152832,493.178192 
	C1483.146851,472.651459 1486.618408,452.125488 1491.309448,431.931976 
	C1497.769287,404.125488 1504.795532,376.388550 1516.063843,349.997559 
	C1522.189331,335.651520 1528.760742,321.456970 1540.229370,310.465881 
	C1547.451172,303.544830 1556.086914,297.856995 1566.407471,302.425720 
	C1572.364746,305.062897 1578.048584,309.708588 1582.185181,314.805878 
	C1594.317993,329.756683 1601.471313,347.505798 1607.740479,365.494873 
	C1622.384644,407.516693 1630.589111,451.084381 1637.628174,494.862274 
	C1640.887939,515.135620 1643.245239,535.571411 1645.430786,555.995728 
	C1648.031128,580.293518 1650.050659,604.654175 1652.235596,628.995361 
	C1653.315308,641.024597 1654.464233,653.057129 1655.112549,665.113403 
	C1656.020264,681.993103 1656.520752,698.895264 1657.135864,715.789978 
	C1657.533813,726.721802 1657.801025,737.658264 1658.171753,748.591187 
	C1658.470093,757.389526 1658.835571,766.185608 1659.028442,775.914062 
	C1659.101562,783.940918 1659.174561,791.967834 1659.144775,800.927124 
	C1659.187622,807.617126 1659.230469,814.307068 1659.206909,821.465210 
M389.004303,146.220764 
	C386.121552,137.729080 383.036896,129.297897 380.464081,120.713326 
	C379.546997,117.653244 378.136932,116.940514 375.221252,116.947807 
	C342.233215,117.030228 309.244659,117.057739 276.257141,116.907486 
	C273.094543,116.893082 271.908936,118.239189 271.050018,120.769646 
	C266.385406,134.511856 261.670074,148.236816 257.009521,161.980377 
	C247.319504,190.555573 237.707489,219.157333 227.960968,247.713211 
	C218.694305,274.863220 209.254181,301.953979 199.969254,329.097809 
	C190.261932,357.476501 180.667053,385.893616 170.989166,414.282410 
	C161.355515,442.541443 151.670639,470.783020 142.025009,499.037994 
	C132.338593,527.412537 122.642311,555.783813 113.006615,584.175659 
	C103.256546,612.904358 93.625694,641.673645 83.850937,670.393982 
	C72.401787,704.033997 60.844444,737.637207 49.353992,771.263123 
	C45.904045,781.359131 42.520782,791.477844 38.913063,802.160339 
	C46.678181,802.160339 53.828129,802.160339 60.896477,802.891113 
	C57.657570,812.372375 54.418659,821.853577 51.089493,831.599060 
	C52.676758,831.775513 53.654972,831.978577 54.633312,831.979248 
	C82.782166,831.997681 110.931534,831.915771 139.079300,832.092102 
	C142.863449,832.115845 143.902405,830.146912 144.828354,827.301941 
	C150.828201,808.866638 156.814941,790.426941 162.893295,772.017456 
	C179.409164,721.995728 196.008301,672.001404 212.431488,621.949341 
	C213.682510,618.136658 215.456848,616.899841 219.488556,616.906738 
	C297.938721,617.040100 376.389160,617.014954 454.994904,617.778320 
	C466.020660,650.220398 477.071411,682.653931 488.064514,715.107056 
	C497.435150,742.770325 506.701538,770.468994 516.170654,798.098389 
	C516.718750,799.697632 518.674988,800.814331 520.014709,802.916443 
	C522.640259,810.944580 525.485352,818.910217 527.795532,827.028137 
	C528.893860,830.887573 530.623840,832.129944 534.696533,832.101135 
	C562.848328,831.901917 591.002197,831.996216 619.155396,831.996216 
	C620.907410,831.996216 622.659363,831.996216 625.170105,831.996216 
	C623.483643,827.249268 622.083008,823.416870 620.757629,819.558533 
	C611.605469,792.915833 602.441223,766.277222 593.335327,739.618652 
	C584.130493,712.670471 575.023010,685.689026 565.810913,658.743286 
	C551.980469,618.289001 538.073547,577.860840 524.242310,537.406799 
	C515.083435,510.618652 506.027405,483.795319 496.875153,457.004883 
	C487.660858,430.032715 478.359680,403.090210 469.142365,376.119049 
	C460.040466,349.485565 451.008087,322.828339 441.922791,296.189148 
	C432.615143,268.898041 423.257141,241.624100 413.964874,214.327774 
	C406.810272,193.310883 399.763000,172.257263 392.528717,151.267975 
	C391.968781,149.643326 390.306763,148.398514 389.004303,146.220764 
M3308.983643,588.691956 
	C3309.144775,580.921692 3305.927490,574.075073 3302.062988,567.817871 
	C3296.393311,558.636658 3288.899414,551.207825 3278.518311,546.944763 
	C3271.595215,544.101746 3265.191406,543.752136 3258.406738,547.142395 
	C3251.330322,550.678162 3244.045898,553.802063 3236.819336,557.031738 
	C3227.761963,561.079712 3218.617676,564.936340 3209.608154,569.087280 
	C3199.098877,573.929199 3188.703857,579.019653 3178.241211,583.963562 
	C3172.278809,586.781006 3166.240234,589.439148 3160.308838,592.319153 
	C3154.154297,595.307495 3148.173584,598.664185 3141.959473,601.516968 
	C3135.200195,604.619995 3128.200195,607.195190 3121.414795,610.244690 
	C3113.750488,613.689148 3106.220703,617.431885 3098.609131,620.994873 
	C3092.804443,623.711975 3086.926270,626.274780 3081.147705,629.045410 
	C3074.786865,632.095215 3068.564941,635.439880 3062.167480,638.408142 
	C3054.752197,641.848694 3048.007568,646.919800 3046.295898,654.661682 
	C3042.530518,671.691040 3041.455322,688.798096 3049.619873,705.467896 
	C3056.063232,718.623352 3064.656982,729.660950 3076.626709,737.920776 
	C3081.913330,741.568848 3088.029541,743.493835 3094.254150,745.534668 
	C3104.161133,748.782654 3112.542725,746.543640 3120.384277,741.667847 
	C3130.347412,735.472717 3139.536377,728.045044 3149.207764,721.364319 
	C3159.021240,714.585205 3169.145264,708.252502 3178.899902,701.392151 
	C3192.174561,692.056458 3205.134033,682.272949 3218.402344,672.928467 
	C3231.124756,663.968384 3244.131836,655.413025 3256.898926,646.514954 
	C3269.583496,637.674194 3282.071289,628.550781 3294.751709,619.704224 
	C3301.350830,615.100403 3307.522705,610.227234 3308.598145,601.584473 
	C3309.087646,597.648560 3308.883545,593.626404 3308.983643,588.691956 
M3767.027588,633.576355 
	C3758.613037,629.386780 3750.289062,625.002319 3741.761963,621.055786 
	C3730.425293,615.808899 3718.926758,610.911438 3707.505615,605.846924 
	C3703.336670,603.998291 3699.116455,602.245972 3695.049561,600.192200 
	C3689.281006,597.279358 3683.775635,593.812927 3677.901367,591.148254 
	C3667.315430,586.346436 3656.418457,582.224487 3645.875732,577.334534 
	C3634.783203,572.189636 3624.034912,566.307129 3612.986572,561.061951 
	C3602.398926,556.035400 3591.552734,551.554260 3580.948486,546.561157 
	C3574.446289,543.499756 3568.165527,544.270691 3561.882324,546.744324 
	C3553.103271,550.200439 3546.012207,555.940674 3540.976807,563.877319 
	C3537.639160,569.138184 3533.920166,574.539490 3532.311523,580.409424 
	C3530.652588,586.463806 3530.775635,593.195923 3531.155029,599.569946 
	C3531.597900,607.019104 3535.340332,612.962219 3541.903320,617.030212 
	C3546.052246,619.601685 3549.975830,622.544556 3553.941406,625.402344 
	C3563.712646,632.443542 3573.389893,639.616516 3583.220947,646.572571 
	C3590.209717,651.517273 3597.421631,656.145142 3604.472412,661.003540 
	C3616.052979,668.983337 3627.583740,677.035950 3639.136230,685.056335 
	C3648.062744,691.253296 3657.034668,697.385925 3665.906738,703.659241 
	C3675.918213,710.738525 3685.781494,718.028076 3695.821533,725.065796 
	C3703.125244,730.185425 3710.499512,735.223572 3718.060059,739.949829 
	C3722.388428,742.655701 3726.944336,745.923340 3731.764160,746.719421 
	C3741.040771,748.251587 3750.329590,746.018921 3758.190918,740.936462 
	C3764.932617,736.577698 3770.856445,730.900330 3776.909180,725.542969 
	C3785.583496,717.865234 3790.477051,707.771545 3793.998291,696.996826 
	C3797.790527,685.392761 3795.647949,673.368103 3795.799805,661.535095 
	C3795.843262,658.167297 3794.456299,654.415405 3792.690186,651.457581 
	C3787.039551,641.994568 3777.705811,637.423828 3767.027588,633.576355 
M3764.389648,368.994110 
	C3769.477051,366.634308 3774.726318,364.564972 3779.612061,361.842987 
	C3786.115723,358.219513 3792.365479,353.465698 3793.836426,345.940308 
	C3797.183594,328.817871 3798.361084,311.894257 3790.289551,295.107330 
	C3783.772949,281.555084 3774.791748,270.723877 3762.642334,262.341888 
	C3757.751953,258.967865 3752.107666,257.225250 3746.359619,255.367859 
	C3736.630127,252.223938 3727.866699,254.038315 3720.051514,258.800537 
	C3708.968750,265.553894 3698.760254,273.744873 3688.198730,281.349762 
	C3680.597412,286.822754 3673.152832,292.522705 3665.416504,297.796051 
	C3655.179443,304.774109 3644.609619,311.265778 3634.402588,318.285828 
	C3626.474121,323.738983 3618.979492,329.819305 3611.114746,335.370026 
	C3601.783936,341.955719 3592.181396,348.156250 3582.844971,354.734375 
	C3570.583984,363.372955 3558.589355,372.393768 3546.241699,380.904022 
	C3539.373291,385.637878 3532.039307,390.240997 3531.576904,399.303223 
	C3531.164795,407.376068 3531.678467,415.766327 3533.554688,423.591827 
	C3534.827637,428.901276 3539.015137,433.573090 3542.157227,438.360565 
	C3548.759033,448.419464 3558.148682,454.411896 3570.059814,455.808228 
	C3573.581055,456.221008 3577.487061,455.299225 3580.912109,454.110870 
	C3585.642578,452.469604 3590.053711,449.928345 3594.656006,447.895264 
	C3601.076904,445.058838 3607.619873,442.489319 3613.977783,439.521606 
	C3620.501465,436.476379 3626.788574,432.924042 3633.317627,429.890472 
	C3643.072510,425.358002 3653.021729,421.242157 3662.754395,416.664215 
	C3676.416504,410.238159 3689.892578,403.415649 3703.572266,397.027863 
	C3711.333008,393.403839 3719.463135,390.568970 3727.209473,386.917114 
	C3739.432617,381.154877 3751.472900,375.004242 3764.389648,368.994110 
M3044.916260,309.413361 
	C3044.615967,310.164368 3044.060059,310.913513 3044.054443,311.666687 
	C3043.989502,320.665161 3043.287109,329.736511 3044.181885,338.644989 
	C3045.312988,349.901794 3051.665039,357.789246 3062.410889,362.242004 
	C3069.001953,364.973083 3075.187500,368.674805 3081.597412,371.855164 
	C3087.177490,374.623749 3092.772949,377.369293 3098.441650,379.949310 
	C3105.552246,383.185577 3112.788818,386.145325 3119.890381,389.400513 
	C3130.024170,394.045380 3140.057617,398.909454 3150.186035,403.566345 
	C3157.192139,406.787537 3164.354980,409.671326 3171.319580,412.976501 
	C3177.231689,415.782410 3182.868408,419.171783 3188.793213,421.948395 
	C3196.313477,425.472809 3204.022705,428.590973 3211.610840,431.973816 
	C3218.903320,435.225037 3226.192871,438.490662 3233.397461,441.930542 
	C3242.306885,446.184235 3250.819580,451.513428 3260.077881,454.718994 
	C3268.373047,457.590851 3277.208984,456.066956 3284.724854,450.951782 
	C3297.322998,442.378052 3306.340088,430.871094 3308.545654,415.613098 
	C3309.801514,406.923981 3311.058838,397.374176 3304.221680,389.766205 
	C3301.858887,387.137238 3299.046143,384.844055 3296.185059,382.743927 
	C3286.214355,375.425537 3276.213379,368.141937 3266.068115,361.068665 
	C3256.708252,354.542908 3247.053223,348.440186 3237.704346,341.899353 
	C3229.625732,336.247192 3221.881104,330.118958 3213.830078,324.425873 
	C3205.701660,318.678223 3197.281982,313.342560 3189.160645,307.585175 
	C3174.444336,297.152740 3159.895264,286.484955 3145.195557,276.028687 
	C3138.051025,270.946472 3130.895264,265.840820 3123.419434,261.278290 
	C3118.632324,258.356689 3113.445801,255.077988 3108.096924,254.296143 
	C3096.552734,252.608719 3085.691895,255.993332 3076.393555,263.092804 
	C3071.507080,266.823792 3067.210938,271.359528 3062.828369,275.712891 
	C3053.625000,284.854645 3047.800537,295.884705 3044.916260,309.413361 
z"/>
<path fill="#0071CE" opacity="1.000000" stroke="none" 
	d="
M519.975891,802.155579 
	C518.674988,800.814331 516.718750,799.697632 516.170654,798.098389 
	C506.701538,770.468994 497.435150,742.770325 488.064514,715.107056 
	C477.071411,682.653931 466.020660,650.220398 454.891296,617.036682 
	C452.123108,608.421387 449.195740,600.623474 446.894714,592.644958 
	C445.562225,588.024658 443.277649,586.648376 438.473999,586.658569 
	C361.808411,586.821472 285.142273,586.828552 208.476761,586.648499 
	C203.394775,586.636597 201.364334,588.245972 199.811844,592.983887 
	C177.599869,660.771179 155.140015,728.477295 132.887177,796.251282 
	C131.493149,800.496948 129.780319,802.206848 124.967979,802.143982 
	C103.641731,801.864929 82.308678,802.106873 60.978081,802.160278 
	C53.828129,802.160339 46.678181,802.160339 38.913063,802.160339 
	C42.520782,791.477844 45.904045,781.359131 49.353992,771.263123 
	C60.844444,737.637207 72.401787,704.033997 83.850937,670.393982 
	C93.625694,641.673645 103.256546,612.904358 113.006615,584.175659 
	C122.642311,555.783813 132.338593,527.412537 142.025009,499.037994 
	C151.670639,470.783020 161.355515,442.541443 170.989166,414.282410 
	C180.667053,385.893616 190.261932,357.476501 199.969254,329.097809 
	C209.254181,301.953979 218.694305,274.863220 227.960968,247.713211 
	C237.707489,219.157333 247.319504,190.555573 257.009521,161.980377 
	C261.670074,148.236816 266.385406,134.511856 271.050018,120.769646 
	C271.908936,118.239189 273.094543,116.893082 276.257141,116.907486 
	C309.244659,117.057739 342.233215,117.030228 375.221252,116.947807 
	C378.136932,116.940514 379.546997,117.653244 380.464081,120.713326 
	C383.036896,129.297897 386.121552,137.729080 389.099792,146.970703 
	C463.570740,365.580963 537.946167,583.441284 612.557678,801.993042 
	C609.236084,801.993042 607.087219,801.989563 604.938293,801.993591 
	C576.617493,802.046936 548.296692,802.101379 519.975891,802.155579 
M243.973175,516.975403 
	C304.764191,516.975403 365.555237,516.975403 426.638824,516.975403 
	C426.104370,515.301270 425.690918,513.893860 425.208099,512.510620 
	C418.165344,492.331604 411.037018,472.182098 404.079742,451.973694 
	C390.967712,413.887878 377.507751,375.913696 365.029419,337.620361 
	C353.724365,302.927612 343.533875,267.871704 332.941193,232.196365 
	C329.941162,220.089996 326.941101,207.983643 323.941040,195.877274 
	C323.126770,195.846329 322.312500,195.815369 321.498230,195.784424 
	C296.990295,305.537323 254.893677,409.741821 220.948486,516.872925 
	C228.796432,516.872925 235.921570,516.872925 243.973175,516.975403 
z"/>
<path fill="#0071CD" opacity="1.000000" stroke="none" 
	d="
M1376.727051,696.962280 
	C1376.759521,689.963745 1377.143188,682.945801 1376.758423,675.970276 
	C1375.623047,655.386475 1374.436768,634.799255 1372.791626,614.251648 
	C1371.142944,593.661499 1369.194702,573.085938 1366.856323,552.563354 
	C1364.989624,536.179993 1362.217285,519.901917 1360.061523,503.548767 
	C1355.055908,465.577789 1347.407104,428.120483 1336.896606,391.331696 
	C1329.814453,366.543030 1321.964722,341.840363 1306.862427,320.394165 
	C1303.673096,315.865082 1299.730957,311.691803 1295.501831,308.101288 
	C1281.431763,296.155884 1268.920776,300.445892 1258.063110,313.446106 
	C1243.528931,330.848480 1236.248535,351.826935 1229.180664,372.791016 
	C1219.740112,400.792511 1213.344238,429.606598 1208.180420,458.675537 
	C1204.314697,480.437592 1200.358032,502.200867 1197.298096,524.083313 
	C1194.764404,542.202820 1193.277222,560.479492 1191.695435,578.718506 
	C1189.530884,603.677002 1187.689941,628.663940 1185.769653,653.643188 
	C1185.312744,659.586487 1185.098511,665.548340 1184.761475,671.501038 
	C1184.110229,683.006104 1183.451294,694.510742 1182.548340,706.772705 
	C1182.395020,709.373047 1182.488892,711.216187 1182.582764,713.059387 
	C1182.005859,736.990723 1181.428955,760.922119 1180.611694,785.448547 
	C1180.307739,786.374939 1180.244263,786.706177 1180.180664,787.037415 
	C1180.150757,788.087891 1180.120728,789.138367 1180.025879,790.955200 
	C1180.035889,792.489807 1180.111084,793.258057 1180.186157,794.026367 
	C1180.158081,795.402710 1180.130127,796.779114 1180.033447,798.961487 
	C1180.036743,800.853271 1180.108643,801.938965 1180.180664,803.024719 
	C1180.151001,806.699280 1180.121460,810.373840 1180.062500,814.773804 
	C1180.080933,815.679138 1180.128906,815.859192 1180.177002,816.039185 
	C1180.056763,817.515259 1179.936401,818.991394 1179.794922,820.727417 
	C1153.041992,820.727417 1126.423584,820.727417 1098.998779,820.727417 
	C1098.998779,819.228088 1098.998169,817.650024 1098.998779,816.071899 
	C1099.004517,800.573181 1098.754883,785.068970 1099.085815,769.577209 
	C1099.443481,752.835815 1100.077881,736.089966 1101.081909,719.375610 
	C1102.082520,702.721619 1103.448975,686.080017 1105.102295,669.477600 
	C1106.738525,653.045654 1108.719604,636.640442 1110.935059,620.275635 
	C1114.016602,597.515198 1117.254272,574.771667 1120.791260,552.078003 
	C1126.144653,517.730164 1133.959961,483.893890 1143.436890,450.471649 
	C1153.251831,415.857880 1165.354736,382.029724 1181.320435,349.730530 
	C1191.473755,329.190033 1202.908081,309.336670 1218.690308,292.467377 
	C1230.755127,279.571411 1243.974731,268.131561 1261.433105,262.929504 
	C1282.537598,256.641113 1301.842896,261.120300 1319.729980,273.009979 
	C1341.943237,287.775238 1357.384521,308.645660 1370.861938,331.105377 
	C1384.874634,354.456665 1395.186646,379.564697 1404.492676,405.055237 
	C1409.571899,418.967590 1413.618286,433.256836 1418.145264,447.371338 
	C1418.488403,448.441101 1418.950562,449.472626 1419.538574,450.989288 
	C1423.209595,439.373566 1426.117065,428.005493 1430.370605,417.165588 
	C1439.299805,394.409271 1448.343628,371.661102 1458.453735,349.415588 
	C1468.077271,328.241119 1481.032471,308.957245 1497.040405,291.970367 
	C1510.266724,277.935181 1525.192139,266.387146 1544.608032,261.931000 
	C1564.568115,257.349976 1582.587158,261.833252 1599.080566,273.295959 
	C1618.654907,286.899933 1632.858765,305.256744 1644.829712,325.586517 
	C1671.115356,370.226227 1688.120117,418.524414 1700.726562,468.462158 
	C1706.848511,492.713257 1712.230469,517.182678 1716.968140,541.742126 
	C1721.065063,562.981079 1724.022949,584.452637 1727.028809,605.885254 
	C1729.666016,624.689331 1732.052002,643.545776 1733.848999,662.445679 
	C1735.681763,681.722839 1736.899292,701.068298 1737.945557,720.407654 
	C1738.930542,738.615784 1739.363037,756.854187 1739.997192,775.080750 
	C1740.533203,790.484863 1741.009521,805.891113 1741.534180,821.965820 
	C1714.111938,821.965820 1687.519775,821.965820 1660.374268,821.728760 
	C1659.683716,821.276794 1659.501221,821.111938 1659.273438,820.997070 
	C1659.230469,814.307068 1659.187622,807.617126 1659.388916,800.098755 
	C1659.479126,791.174438 1659.325195,783.078552 1659.171265,774.982666 
	C1658.835571,766.185608 1658.470093,757.389526 1658.171753,748.591187 
	C1657.801025,737.658264 1657.533813,726.721802 1657.135864,715.789978 
	C1656.520752,698.895264 1656.020264,681.993103 1655.112549,665.113403 
	C1654.464233,653.057129 1653.315308,641.024597 1652.235596,628.995361 
	C1650.050659,604.654175 1648.031128,580.293518 1645.430786,555.995728 
	C1643.245239,535.571411 1640.887939,515.135620 1637.628174,494.862274 
	C1630.589111,451.084381 1622.384644,407.516693 1607.740479,365.494873 
	C1601.471313,347.505798 1594.317993,329.756683 1582.185181,314.805878 
	C1578.048584,309.708588 1572.364746,305.062897 1566.407471,302.425720 
	C1556.086914,297.856995 1547.451172,303.544830 1540.229370,310.465881 
	C1528.760742,321.456970 1522.189331,335.651520 1516.063843,349.997559 
	C1504.795532,376.388550 1497.769287,404.125488 1491.309448,431.931976 
	C1486.618408,452.125488 1483.146851,472.651459 1480.152832,493.178192 
	C1475.958252,521.937927 1472.365356,550.797852 1469.179688,579.688171 
	C1466.931396,600.078186 1465.630859,620.579041 1464.202515,641.050964 
	C1463.258545,654.581482 1462.771240,668.145752 1462.204712,681.700134 
	C1461.754395,692.475037 1461.493774,703.257874 1461.084473,714.739929 
	C1460.991699,715.615784 1460.963379,715.789001 1460.935181,715.962158 
	C1460.635864,725.058838 1460.197632,734.153564 1460.072388,743.252625 
	C1459.916382,754.582153 1459.906128,765.916809 1460.072754,777.245789 
	C1460.127563,780.969055 1458.833740,782.094788 1455.140625,782.071716 
	C1430.145874,781.915283 1405.149902,781.958984 1379.620117,781.646057 
	C1378.977417,781.226196 1378.869019,781.098389 1378.760742,780.970581 
	C1378.382324,753.510742 1378.003906,726.050903 1377.294678,698.015625 
	C1376.884888,697.280884 1376.806030,697.121582 1376.727051,696.962280 
z"/>
<path fill="#0071CE" opacity="1.000000" stroke="none" 
	d="
M2112.947754,798.112549 
	C2112.288330,798.076355 2111.628906,798.016052 2110.969238,798.007812 
	C2104.085938,797.922058 2104.277344,797.914368 2103.932373,791.233948 
	C2103.699463,786.726868 2102.831543,782.252625 2102.132324,776.941406 
	C2101.075439,764.783264 2100.133789,753.447266 2099.191895,742.111267 
	C2098.583496,741.901855 2097.974854,741.692383 2097.366455,741.482910 
	C2095.909668,743.030212 2094.337891,744.485474 2093.012695,746.138306 
	C2060.826660,786.274231 2017.879150,804.767517 1967.584351,807.807983 
	C1957.406982,808.423218 1947.005249,807.157349 1936.838745,805.783630 
	C1904.325439,801.390259 1876.417236,787.932556 1854.916260,762.543030 
	C1850.971191,757.884399 1847.222412,753.059448 1843.382935,748.311279 
	C1843.382935,748.311279 1843.295166,748.313599 1843.403687,747.884399 
	C1843.086792,746.792419 1842.661377,746.129639 1842.235840,745.466919 
	C1835.583496,732.822876 1829.775146,719.870178 1827.801880,705.538574 
	C1826.145630,693.509888 1824.449829,681.616943 1825.713257,669.262146 
	C1826.887329,657.780823 1828.557983,646.567322 1831.720093,635.476868 
	C1836.276367,619.496826 1843.931641,605.176819 1854.267212,592.315613 
	C1867.199219,576.223633 1883.012695,563.524231 1901.028198,553.439270 
	C1928.011719,538.334167 1957.093628,529.338989 1987.349731,524.116882 
	C2003.323364,521.359985 2019.494629,519.491028 2035.653320,518.131470 
	C2053.787354,516.605835 2072.008057,516.107666 2090.757080,515.133057 
	C2091.628662,500.953033 2090.878906,486.293884 2087.067627,471.139282 
	C2086.711426,469.924316 2086.400635,469.418427 2086.089844,468.912598 
	C2086.089844,468.912598 2086.101318,468.983765 2086.197021,468.559387 
	C2083.323486,454.607513 2076.666016,442.963531 2067.469482,432.838715 
	C2051.272949,415.007477 2030.073608,407.682739 2006.837158,406.130463 
	C1970.382446,403.695221 1935.043213,409.232208 1901.501587,424.060272 
	C1892.908936,427.858917 1885.024292,433.258911 1876.814453,437.923157 
	C1875.854370,437.256561 1874.331909,436.787689 1874.017578,435.893951 
	C1868.021118,418.845428 1862.166870,401.746979 1856.133057,384.222717 
	C1859.750854,382.157471 1863.371094,380.016174 1867.058716,377.997894 
	C1888.411743,366.311218 1911.218140,358.460693 1934.861694,353.114502 
	C1945.173340,350.782898 1955.705933,348.892578 1966.232300,348.165375 
	C1984.692871,346.890045 2003.287231,345.392151 2021.715454,346.277740 
	C2055.281494,347.890717 2087.307373,356.350677 2113.925049,377.868774 
	C2132.217041,392.656067 2147.238525,410.739716 2155.232666,433.573517 
	C2157.327393,439.557129 2159.223389,445.610382 2161.545410,452.198181 
	C2162.212402,453.213654 2162.545166,453.662567 2162.877686,454.111511 
	C2162.877686,454.111511 2162.891602,454.032837 2162.779541,454.464111 
	C2163.430176,458.301758 2164.180908,461.710907 2164.957764,465.114075 
	C2169.839600,486.494934 2171.188965,508.204895 2171.251221,530.064148 
	C2171.440186,596.357300 2171.592041,662.651123 2172.096680,728.942200 
	C2172.200439,742.565918 2173.664307,756.186584 2174.701660,769.793396 
	C2175.393799,778.870178 2176.441406,787.919800 2177.407471,797.772827 
	C2174.614258,797.772827 2172.500977,797.762390 2170.387695,797.774597 
	C2151.240967,797.885010 2132.094482,797.999329 2112.947754,798.112549 
M2093.091064,598.120850 
	C2093.136230,590.959717 2093.008789,583.791565 2093.297119,576.640259 
	C2093.448730,572.882080 2092.136475,571.689819 2088.441650,571.823364 
	C2074.968262,572.310425 2061.468506,572.236877 2048.011230,572.973755 
	C2021.330322,574.434937 1995.053345,578.219604 1969.875122,587.810303 
	C1951.533813,594.796631 1934.772217,604.157349 1922.659424,620.047424 
	C1907.526489,639.898926 1904.011230,662.610596 1907.413696,686.799316 
	C1908.962036,697.806824 1912.166382,708.199036 1919.187866,717.859741 
	C1928.193359,731.481628 1940.893555,739.814941 1956.508301,744.032410 
	C1966.977661,746.860168 1977.485718,748.902344 1988.407837,747.012390 
	C1998.046143,745.344543 2007.990845,744.796814 2017.312988,742.081787 
	C2039.795776,735.533569 2058.833008,723.164612 2073.008301,704.319214 
	C2083.968506,689.747864 2092.058838,673.518494 2092.821045,654.978333 
	C2093.585938,636.363953 2092.919434,617.690613 2093.091064,598.120850 
z"/>
<path fill="#0071CE" opacity="1.000000" stroke="none" 
	d="
M2581.953125,417.086212 
	C2578.493652,417.086212 2575.034424,417.086212 2571.290527,417.086212 
	C2571.290527,396.341461 2571.290527,376.093597 2571.290527,355.292145 
	C2593.857910,355.292145 2616.555664,355.292145 2639.762207,355.292145 
	C2639.762207,327.375793 2639.762207,300.002686 2639.762207,272.447083 
	C2666.326416,264.362488 2692.473633,256.404846 2719.026611,248.323624 
	C2719.026611,258.452942 2719.026611,268.243286 2719.010010,278.961304 
	C2718.993408,304.761536 2718.993408,329.634003 2718.993408,354.839264 
	C2723.116211,354.839264 2726.569092,354.839264 2730.022217,354.839264 
	C2762.470703,354.892822 2794.919434,354.946564 2827.367920,354.999512 
	C2829.343994,355.002747 2831.320068,354.999908 2834.025146,354.999908 
	C2834.025146,363.870361 2834.025146,372.452606 2834.002930,381.963074 
	C2833.958496,391.884552 2833.658936,400.889038 2834.023926,409.866486 
	C2834.224365,414.794434 2832.979736,416.391632 2827.748291,416.353119 
	C2793.774170,416.103180 2759.797363,416.224945 2725.821289,416.225037 
	C2723.712402,416.225037 2721.603271,416.225037 2718.914062,416.225037 
	C2718.914062,419.075226 2718.913818,421.197052 2718.913818,423.318848 
	C2718.913818,498.598846 2718.875732,573.878906 2718.961426,649.158813 
	C2718.972412,658.800720 2719.246582,668.474487 2720.072266,678.075623 
	C2721.321289,692.595886 2724.158691,706.751892 2732.853516,719.008423 
	C2743.909180,734.625610 2759.629150,739.975098 2778.035156,740.069946 
	C2794.028320,740.152344 2809.893555,739.604553 2825.719727,734.715942 
	C2826.512939,744.488525 2827.268311,753.790344 2827.954590,763.980835 
	C2828.263184,774.176208 2828.526123,783.489807 2829.086182,792.785583 
	C2829.260010,795.669861 2828.249268,796.844727 2825.611816,797.737793 
	C2805.892822,804.415344 2785.413574,806.809875 2764.828369,807.792847 
	C2754.794189,808.272034 2744.580566,807.133423 2734.582275,805.755066 
	C2716.173828,803.217407 2699.291748,796.500732 2684.114502,785.571228 
	C2674.058350,778.329529 2666.682617,768.790833 2659.918213,758.648743 
	C2650.934082,743.556519 2646.168213,726.916992 2643.247070,709.850708 
	C2641.281250,698.365784 2640.178467,686.591675 2640.136719,674.941711 
	C2639.861328,598.279236 2639.979492,521.615295 2639.960938,444.023132 
	C2639.952148,434.354523 2639.952148,425.614655 2639.952148,416.699677 
	C2638.436768,416.497314 2637.480225,416.259552 2636.523193,416.258118 
	C2619.600586,416.232910 2602.677734,416.218262 2585.755127,416.270691 
	C2584.487061,416.274628 2583.220459,416.802124 2581.953125,417.086212 
z"/>
<path fill="#0071CE" opacity="1.000000" stroke="none" 
	d="
M676.961792,798.140991 
	C673.500000,798.141052 670.038208,798.141052 666.291748,798.141052 
	C666.291748,581.238281 666.291748,364.887939 666.291748,148.268280 
	C693.397461,148.268280 720.322632,148.268280 748.010559,148.268280 
	C748.010559,156.831055 748.010559,165.419617 747.779846,174.806900 
	C747.409851,177.920227 747.148743,180.234848 747.148499,182.549484 
	C747.129822,385.019043 747.131104,587.488647 747.131165,789.958191 
	C747.131165,792.380066 747.131226,794.802002 747.131226,797.773132 
	C740.850342,797.773132 735.387146,797.744690 729.924438,797.778320 
	C712.270142,797.886963 694.615967,798.018372 676.961792,798.140991 
z"/>
<path fill="#0071CE" opacity="1.000000" stroke="none" 
	d="
M892.955627,798.122498 
	C889.493652,798.122498 886.031677,798.122498 882.287842,798.122498 
	C882.287842,581.225281 882.287842,364.865173 882.287842,148.251953 
	C909.094910,148.251953 935.688416,148.251953 963.030151,148.251953 
	C963.030151,156.866714 963.030151,165.458527 963.030762,174.978241 
	C963.007385,178.572037 962.962463,181.237946 962.962463,183.903839 
	C962.959167,386.050140 962.959351,588.196472 962.959412,790.342773 
	C962.959412,792.615906 962.959473,794.889099 962.959473,797.773743 
	C958.669983,797.773743 955.045166,797.756287 951.420593,797.776733 
	C931.932251,797.886780 912.443970,798.006226 892.955627,798.122498 
z"/>
<path fill="#0071CE" opacity="1.000000" stroke="none" 
	d="
M2311.945801,798.101746 
	C2308.482178,798.101746 2305.018555,798.101746 2301.000000,798.101746 
	C2301.000000,795.639099 2301.000000,793.692627 2301.000000,791.746155 
	C2301.000000,694.762939 2301.072998,597.779663 2300.954102,500.796570 
	C2300.919922,472.879150 2300.496338,444.959106 2299.935547,417.046600 
	C2299.623291,401.507629 2298.717529,385.978973 2297.958984,370.451538 
	C2297.718994,365.541840 2297.088379,360.651215 2296.599609,355.351013 
	C2320.681885,355.351013 2344.067627,355.351013 2368.478760,355.351013 
	C2368.662354,363.951538 2368.844727,372.497284 2369.021484,381.970306 
	C2369.792480,402.798920 2370.569092,422.700256 2371.345703,442.601593 
	C2372.139893,442.748657 2372.934326,442.895691 2373.728760,443.042755 
	C2376.192139,436.700104 2378.655273,430.357452 2381.118652,424.014862 
	C2387.293701,414.265839 2392.874023,404.069397 2399.788574,394.876709 
	C2409.252686,382.294556 2421.106445,372.060486 2434.582031,363.741364 
	C2447.526611,355.750153 2461.268555,349.351562 2476.341064,347.621857 
	C2488.709961,346.202362 2501.340088,347.053101 2513.854248,346.904755 
	C2515.673828,346.883179 2517.493652,346.901733 2520.023926,346.901733 
	C2520.023926,355.491760 2520.023926,363.759796 2519.970703,372.952759 
	C2519.917725,390.253937 2519.917725,406.630188 2519.917725,421.988037 
	C2508.572998,421.988037 2498.450195,421.699890 2488.348633,422.043671 
	C2461.345459,422.962585 2438.057617,432.832031 2419.307129,452.382324 
	C2394.321533,478.433563 2382.671387,510.520477 2382.261230,545.829956 
	C2381.312500,627.451904 2381.844971,709.091064 2381.760742,790.723206 
	C2381.758301,792.973450 2381.575928,795.223511 2381.464600,797.772705 
	C2378.197021,797.772705 2375.543945,797.760681 2372.890625,797.774536 
	C2352.575684,797.880798 2332.260742,797.992065 2311.945801,798.101746 
z"/>
<path fill="#FEC321" opacity="1.000000" stroke="none" 
	d="
M3308.988770,589.167603 
	C3308.883545,593.626404 3309.087646,597.648560 3308.598145,601.584473 
	C3307.522705,610.227234 3301.350830,615.100403 3294.751709,619.704224 
	C3282.071289,628.550781 3269.583496,637.674194 3256.898926,646.514954 
	C3244.131836,655.413025 3231.124756,663.968384 3218.402344,672.928467 
	C3205.134033,682.272949 3192.174561,692.056458 3178.899902,701.392151 
	C3169.145264,708.252502 3159.021240,714.585205 3149.207764,721.364319 
	C3139.536377,728.045044 3130.347412,735.472717 3120.384277,741.667847 
	C3112.542725,746.543640 3104.161133,748.782654 3094.254150,745.534668 
	C3088.029541,743.493835 3081.913330,741.568848 3076.626709,737.920776 
	C3064.656982,729.660950 3056.063232,718.623352 3049.619873,705.467896 
	C3041.455322,688.798096 3042.530518,671.691040 3046.295898,654.661682 
	C3048.007568,646.919800 3054.752197,641.848694 3062.167480,638.408142 
	C3068.564941,635.439880 3074.786865,632.095215 3081.147705,629.045410 
	C3086.926270,626.274780 3092.804443,623.711975 3098.609131,620.994873 
	C3106.220703,617.431885 3113.750488,613.689148 3121.414795,610.244690 
	C3128.200195,607.195190 3135.200195,604.619995 3141.959473,601.516968 
	C3148.173584,598.664185 3154.154297,595.307495 3160.308838,592.319153 
	C3166.240234,589.439148 3172.278809,586.781006 3178.241211,583.963562 
	C3188.703857,579.019653 3199.098877,573.929199 3209.608154,569.087280 
	C3218.617676,564.936340 3227.761963,561.079712 3236.819336,557.031738 
	C3244.045898,553.802063 3251.330322,550.678162 3258.406738,547.142395 
	C3265.191406,543.752136 3271.595215,544.101746 3278.518311,546.944763 
	C3288.899414,551.207825 3296.393311,558.636658 3302.062988,567.817871 
	C3305.927490,574.075073 3309.144775,580.921692 3308.988770,589.167603 
z"/>
<path fill="#FEC321" opacity="1.000000" stroke="none" 
	d="
M3767.369873,633.768677 
	C3777.705811,637.423828 3787.039551,641.994568 3792.690186,651.457581 
	C3794.456299,654.415405 3795.843262,658.167297 3795.799805,661.535095 
	C3795.647949,673.368103 3797.790527,685.392761 3793.998291,696.996826 
	C3790.477051,707.771545 3785.583496,717.865234 3776.909180,725.542969 
	C3770.856445,730.900330 3764.932617,736.577698 3758.190918,740.936462 
	C3750.329590,746.018921 3741.040771,748.251587 3731.764160,746.719421 
	C3726.944336,745.923340 3722.388428,742.655701 3718.060059,739.949829 
	C3710.499512,735.223572 3703.125244,730.185425 3695.821533,725.065796 
	C3685.781494,718.028076 3675.918213,710.738525 3665.906738,703.659241 
	C3657.034668,697.385925 3648.062744,691.253296 3639.136230,685.056335 
	C3627.583740,677.035950 3616.052979,668.983337 3604.472412,661.003540 
	C3597.421631,656.145142 3590.209717,651.517273 3583.220947,646.572571 
	C3573.389893,639.616516 3563.712646,632.443542 3553.941406,625.402344 
	C3549.975830,622.544556 3546.052246,619.601685 3541.903320,617.030212 
	C3535.340332,612.962219 3531.597900,607.019104 3531.155029,599.569946 
	C3530.775635,593.195923 3530.652588,586.463806 3532.311523,580.409424 
	C3533.920166,574.539490 3537.639160,569.138184 3540.976807,563.877319 
	C3546.012207,555.940674 3553.103271,550.200439 3561.882324,546.744324 
	C3568.165527,544.270691 3574.446289,543.499756 3580.948486,546.561157 
	C3591.552734,551.554260 3602.398926,556.035400 3612.986572,561.061951 
	C3624.034912,566.307129 3634.783203,572.189636 3645.875732,577.334534 
	C3656.418457,582.224487 3667.315430,586.346436 3677.901367,591.148254 
	C3683.775635,593.812927 3689.281006,597.279358 3695.049561,600.192200 
	C3699.116455,602.245972 3703.336670,603.998291 3707.505615,605.846924 
	C3718.926758,610.911438 3730.425293,615.808899 3741.761963,621.055786 
	C3750.289062,625.002319 3758.613037,629.386780 3767.369873,633.768677 
z"/>
<path fill="#FEC321" opacity="1.000000" stroke="none" 
	d="
M3763.990234,369.006042 
	C3751.472900,375.004242 3739.432617,381.154877 3727.209473,386.917114 
	C3719.463135,390.568970 3711.333008,393.403839 3703.572266,397.027863 
	C3689.892578,403.415649 3676.416504,410.238159 3662.754395,416.664215 
	C3653.021729,421.242157 3643.072510,425.358002 3633.317627,429.890472 
	C3626.788574,432.924042 3620.501465,436.476379 3613.977783,439.521606 
	C3607.619873,442.489319 3601.076904,445.058838 3594.656006,447.895264 
	C3590.053711,449.928345 3585.642578,452.469604 3580.912109,454.110870 
	C3577.487061,455.299225 3573.581055,456.221008 3570.059814,455.808228 
	C3558.148682,454.411896 3548.759033,448.419464 3542.157227,438.360565 
	C3539.015137,433.573090 3534.827637,428.901276 3533.554688,423.591827 
	C3531.678467,415.766327 3531.164795,407.376068 3531.576904,399.303223 
	C3532.039307,390.240997 3539.373291,385.637878 3546.241699,380.904022 
	C3558.589355,372.393768 3570.583984,363.372955 3582.844971,354.734375 
	C3592.181396,348.156250 3601.783936,341.955719 3611.114746,335.370026 
	C3618.979492,329.819305 3626.474121,323.738983 3634.402588,318.285828 
	C3644.609619,311.265778 3655.179443,304.774109 3665.416504,297.796051 
	C3673.152832,292.522705 3680.597412,286.822754 3688.198730,281.349762 
	C3698.760254,273.744873 3708.968750,265.553894 3720.051514,258.800537 
	C3727.866699,254.038315 3736.630127,252.223938 3746.359619,255.367859 
	C3752.107666,257.225250 3757.751953,258.967865 3762.642334,262.341888 
	C3774.791748,270.723877 3783.772949,281.555084 3790.289551,295.107330 
	C3798.361084,311.894257 3797.183594,328.817871 3793.836426,345.940308 
	C3792.365479,353.465698 3786.115723,358.219513 3779.612061,361.842987 
	C3774.726318,364.564972 3769.477051,366.634308 3763.990234,369.006042 
z"/>
<path fill="#FEC321" opacity="1.000000" stroke="none" 
	d="
M3044.953857,308.970734 
	C3047.800537,295.884705 3053.625000,284.854645 3062.828369,275.712891 
	C3067.210938,271.359528 3071.507080,266.823792 3076.393555,263.092804 
	C3085.691895,255.993332 3096.552734,252.608719 3108.096924,254.296143 
	C3113.445801,255.077988 3118.632324,258.356689 3123.419434,261.278290 
	C3130.895264,265.840820 3138.051025,270.946472 3145.195557,276.028687 
	C3159.895264,286.484955 3174.444336,297.152740 3189.160645,307.585175 
	C3197.281982,313.342560 3205.701660,318.678223 3213.830078,324.425873 
	C3221.881104,330.118958 3229.625732,336.247192 3237.704346,341.899353 
	C3247.053223,348.440186 3256.708252,354.542908 3266.068115,361.068665 
	C3276.213379,368.141937 3286.214355,375.425537 3296.185059,382.743927 
	C3299.046143,384.844055 3301.858887,387.137238 3304.221680,389.766205 
	C3311.058838,397.374176 3309.801514,406.923981 3308.545654,415.613098 
	C3306.340088,430.871094 3297.322998,442.378052 3284.724854,450.951782 
	C3277.208984,456.066956 3268.373047,457.590851 3260.077881,454.718994 
	C3250.819580,451.513428 3242.306885,446.184235 3233.397461,441.930542 
	C3226.192871,438.490662 3218.903320,435.225037 3211.610840,431.973816 
	C3204.022705,428.590973 3196.313477,425.472809 3188.793213,421.948395 
	C3182.868408,419.171783 3177.231689,415.782410 3171.319580,412.976501 
	C3164.354980,409.671326 3157.192139,406.787537 3150.186035,403.566345 
	C3140.057617,398.909454 3130.024170,394.045380 3119.890381,389.400513 
	C3112.788818,386.145325 3105.552246,383.185577 3098.441650,379.949310 
	C3092.772949,377.369293 3087.177490,374.623749 3081.597412,371.855164 
	C3075.187500,368.674805 3069.001953,364.973083 3062.410889,362.242004 
	C3051.665039,357.789246 3045.312988,349.901794 3044.181885,338.644989 
	C3043.287109,329.736511 3043.989502,320.665161 3044.054443,311.666687 
	C3044.060059,310.913513 3044.615967,310.164368 3044.953857,308.970734 
z"/>
<path fill="#FEC321" opacity="1.000000" stroke="none" 
	d="
M3464.642090,710.169434 
	C3465.093994,718.061096 3465.200439,725.991089 3466.071533,733.836243 
	C3467.814697,749.535156 3469.980225,765.187073 3471.951416,780.860901 
	C3472.032959,781.508118 3471.873779,782.181824 3471.896484,782.840820 
	C3472.255371,793.248535 3472.252930,803.686523 3473.105469,814.054077 
	C3473.845703,823.059082 3475.660400,831.971191 3476.780518,840.951782 
	C3477.168213,844.059753 3476.895508,847.250244 3476.685547,851.196899 
	C3476.139404,858.692566 3473.041504,865.736572 3478.862305,871.686707 
	C3478.967041,876.893311 3479.637451,882.163940 3479.057129,887.293030 
	C3477.887695,897.625305 3471.379639,904.929016 3463.403076,910.727173 
	C3452.795410,918.437805 3440.982422,922.958435 3427.521484,922.017029 
	C3416.859375,921.271423 3406.094482,921.318665 3395.546387,919.814209 
	C3386.340820,918.501282 3378.518311,913.187378 3372.080811,906.642334 
	C3367.946289,902.438477 3365.000244,897.041870 3361.698242,892.062927 
	C3361.058838,891.099365 3361.018799,889.585693 3361.069336,888.340698 
	C3361.671387,873.509583 3362.234131,858.675354 3363.042969,843.854736 
	C3363.442627,836.528259 3363.679443,829.096069 3365.136475,821.945312 
	C3367.756104,809.088379 3366.397461,795.925476 3368.370117,783.216064 
	C3370.549561,769.178040 3371.498291,755.209351 3372.111084,741.096802 
	C3372.600830,729.825806 3373.296143,718.481384 3375.125000,707.371216 
	C3377.557129,692.599121 3378.540283,677.805786 3379.259521,662.891357 
	C3379.657227,654.641174 3385.380859,648.548279 3392.217285,644.058777 
	C3401.345459,638.064270 3411.679443,635.292175 3422.362305,636.178528 
	C3437.400146,637.426392 3451.412354,641.650452 3459.004883,656.611816 
	C3460.137451,658.843262 3460.735596,661.532227 3460.874512,664.048584 
	C3461.404053,673.632812 3461.643799,683.233032 3461.920654,693.763489 
	C3461.897217,697.530273 3461.619873,700.416565 3462.091797,703.174561 
	C3462.503418,705.581177 3463.759033,707.843384 3464.642090,710.169434 
z"/>
<path fill="#FEC321" opacity="1.000000" stroke="none" 
	d="
M3461.984619,307.266693 
	C3461.351074,318.402344 3461.201660,329.594482 3459.910156,340.653320 
	C3459.076904,347.791199 3453.758789,353.038940 3448.137939,356.842957 
	C3439.005859,363.023285 3428.274658,365.683258 3417.414551,364.793701 
	C3405.162354,363.790100 3393.196777,360.745758 3384.873047,350.353882 
	C3381.581299,346.244385 3379.351562,341.579498 3379.017578,336.208649 
	C3378.659668,330.448792 3378.591797,324.662415 3378.009277,318.927002 
	C3377.189209,310.856384 3375.715332,302.845795 3375.067871,294.765747 
	C3374.381836,286.204102 3374.764160,277.548798 3373.919189,269.009674 
	C3372.282471,252.468979 3370.110840,235.981186 3368.166260,219.470856 
	C3368.089355,218.818314 3368.039551,218.160629 3368.016602,217.503937 
	C3367.674316,207.761948 3367.415527,198.015991 3366.943115,188.280365 
	C3366.835205,186.053192 3365.998291,183.861404 3365.492676,180.864166 
	C3365.388428,175.827118 3365.288574,171.579193 3365.188721,167.331284 
	C3365.138428,166.876328 3365.088379,166.421356 3365.239014,165.230423 
	C3365.720703,161.103256 3365.661377,157.637894 3366.379150,154.341888 
	C3367.078125,151.133591 3366.184082,149.322327 3363.209961,148.320984 
	C3362.149902,138.918610 3360.929443,129.530655 3360.083008,120.109070 
	C3359.456543,113.136238 3361.717285,106.470924 3365.724854,101.159714 
	C3373.372803,91.023438 3383.483154,83.541122 3396.039551,80.736076 
	C3403.016602,79.177376 3410.426514,79.006233 3417.625732,79.125771 
	C3427.115723,79.283325 3437.009766,78.852211 3445.969971,81.374756 
	C3458.115723,84.794212 3468.652344,91.776001 3475.514648,103.289383 
	C3479.581787,110.112717 3480.241699,116.887253 3479.186523,124.670753 
	C3477.735352,135.371994 3477.953857,146.288223 3476.932129,157.062561 
	C3476.062744,166.227005 3474.448975,175.320755 3473.172119,184.446884 
	C3473.080322,185.102753 3473.020264,185.766479 3472.998047,186.428299 
	C3472.657227,196.685593 3472.623535,206.964325 3471.899414,217.194229 
	C3471.279785,225.946075 3469.791016,234.633301 3468.832031,243.365021 
	C3467.799805,252.763229 3466.875244,262.174438 3466.022949,271.590759 
	C3465.548340,276.836914 3465.316895,282.105103 3464.745117,288.098236 
	C3460.249512,294.507996 3462.599854,301.090851 3461.984619,307.266693 
z"/>
<path fill="#444444" opacity="1.000000" stroke="none" 
	d="
M60.937279,802.525696 
	C82.308678,802.106873 103.641731,801.864929 124.967979,802.143982 
	C129.780319,802.206848 131.493149,800.496948 132.887177,796.251282 
	C155.140015,728.477295 177.599869,660.771179 199.811844,592.983887 
	C201.364334,588.245972 203.394775,586.636597 208.476761,586.648499 
	C285.142273,586.828552 361.808411,586.821472 438.473999,586.658569 
	C443.277649,586.648376 445.562225,588.024658 446.894714,592.644958 
	C449.195740,600.623474 452.123108,608.421387 454.813599,616.658691 
	C376.389160,617.014954 297.938721,617.040100 219.488556,616.906738 
	C215.456848,616.899841 213.682510,618.136658 212.431488,621.949341 
	C196.008301,672.001404 179.409164,721.995728 162.893295,772.017456 
	C156.814941,790.426941 150.828201,808.866638 144.828354,827.301941 
	C143.902405,830.146912 142.863449,832.115845 139.079300,832.092102 
	C110.931534,831.915771 82.782166,831.997681 54.633312,831.979248 
	C53.654972,831.978577 52.676758,831.775513 51.089493,831.599060 
	C54.418659,821.853577 57.657570,812.372375 60.937279,802.525696 
z"/>
<path fill="#444444" opacity="1.000000" stroke="none" 
	d="
M2311.962891,798.563354 
	C2332.260742,797.992065 2352.575684,797.880798 2372.890625,797.774536 
	C2375.543945,797.760681 2378.197021,797.772705 2381.464600,797.772705 
	C2381.575928,795.223511 2381.758301,792.973450 2381.760742,790.723206 
	C2381.844971,709.091064 2381.312500,627.451904 2382.261230,545.829956 
	C2382.671387,510.520477 2394.321533,478.433563 2419.307129,452.382324 
	C2438.057617,432.832031 2461.345459,422.962585 2488.348633,422.043671 
	C2498.450195,421.699890 2508.572998,421.988037 2519.917725,421.988037 
	C2519.917725,406.630188 2519.917725,390.253937 2520.021484,373.416138 
	C2523.536133,373.445923 2526.946533,373.937256 2530.658691,374.472015 
	C2530.658691,399.887848 2530.658691,425.116852 2530.658691,450.505402 
	C2522.485840,449.990631 2514.624512,449.136841 2506.756348,449.069275 
	C2485.784424,448.889099 2465.609131,453.006317 2448.335938,465.202606 
	C2438.577881,472.092529 2429.613281,480.695312 2422.035645,489.954315 
	C2408.525146,506.462250 2400.427246,525.937134 2396.650391,546.936707 
	C2394.782715,557.321899 2393.194092,567.930542 2393.156494,578.444092 
	C2392.870605,658.266113 2393.000488,738.089661 2392.999023,817.912720 
	C2392.999023,824.992188 2392.993896,824.997986 2386.050537,824.998779 
	C2363.220215,825.001465 2340.388672,824.892334 2317.560059,825.093445 
	C2313.217285,825.131714 2311.664307,824.011353 2311.903320,819.516907 
	C2312.265869,812.704163 2311.986572,805.857300 2311.962891,798.563354 
z"/>
<path fill="#444444" opacity="1.000000" stroke="none" 
	d="
M676.972046,798.600098 
	C694.615967,798.018372 712.270142,797.886963 729.924438,797.778320 
	C735.387146,797.744690 740.850342,797.773132 747.131226,797.773132 
	C747.131226,794.802002 747.131165,792.380066 747.131165,789.958191 
	C747.131104,587.488647 747.129822,385.019043 747.148499,182.549484 
	C747.148743,180.234848 747.409851,177.920227 747.806213,175.270905 
	C759.002747,175.151260 759.002686,175.151260 759.002686,186.078949 
	C759.002686,396.521698 759.005432,606.964478 758.992859,817.407227 
	C758.992310,825.793884 759.806335,824.979004 751.564270,824.989563 
	C728.570557,825.018921 705.575928,824.896912 682.583862,825.090820 
	C678.287354,825.127075 676.650452,824.088379 676.899414,819.548096 
	C677.272827,812.737427 676.987488,805.890564 676.972046,798.600098 
z"/>
<path fill="#444444" opacity="1.000000" stroke="none" 
	d="
M892.968994,798.582703 
	C912.443970,798.006226 931.932251,797.886780 951.420593,797.776733 
	C955.045166,797.756287 958.669983,797.773743 962.959473,797.773743 
	C962.959473,794.889099 962.959412,792.615906 962.959412,790.342773 
	C962.959351,588.196472 962.959167,386.050140 962.962463,183.903839 
	C962.962463,181.237946 963.007385,178.572037 963.095520,175.441452 
	C974.000000,175.048248 974.000000,175.048248 974.000000,185.678207 
	C974.000000,396.260803 974.002808,606.843445 973.989807,817.426025 
	C973.989319,825.778198 974.815918,824.979370 966.541504,824.989990 
	C943.883911,825.018982 921.225342,824.893738 898.569458,825.092712 
	C894.245850,825.130737 892.659729,824.041565 892.903137,819.529358 
	C893.270508,812.718933 892.988403,805.873474 892.968994,798.582703 
z"/>
<path fill="#444445" opacity="1.000000" stroke="none" 
	d="
M1843.290527,748.727051 
	C1847.222412,753.059448 1850.971191,757.884399 1854.916260,762.543030 
	C1876.417236,787.932556 1904.325439,801.390259 1936.838745,805.783630 
	C1947.005249,807.157349 1957.406982,808.423218 1967.584351,807.807983 
	C2017.879150,804.767517 2060.826660,786.274231 2093.012695,746.138306 
	C2094.337891,744.485474 2095.909668,743.030212 2097.366455,741.482910 
	C2097.974854,741.692383 2098.583496,741.901855 2099.191895,742.111267 
	C2100.133789,753.447266 2101.075439,764.783264 2101.930176,776.575073 
	C2098.210205,780.873779 2094.730713,784.876831 2090.917969,788.532410 
	C2071.096680,807.536011 2048.021973,820.736450 2021.488037,828.166565 
	C2003.956177,833.075867 1986.211670,835.500916 1968.089233,834.954956 
	C1936.034912,833.989563 1906.089355,826.153198 1881.021729,805.159485 
	C1863.184082,790.220764 1849.814087,771.859253 1843.290527,748.727051 
z"/>
<path fill="#444445" opacity="1.000000" stroke="none" 
	d="
M2732.908203,718.582947 
	C2724.158691,706.751892 2721.321289,692.595886 2720.072266,678.075623 
	C2719.246582,668.474487 2718.972412,658.800720 2718.961426,649.158813 
	C2718.875732,573.878906 2718.913818,498.598846 2718.913818,423.318848 
	C2718.913818,421.197052 2718.914062,419.075226 2718.914062,416.225037 
	C2721.603271,416.225037 2723.712402,416.225037 2725.821289,416.225037 
	C2759.797363,416.224945 2793.774170,416.103180 2827.748291,416.353119 
	C2832.979736,416.391632 2834.224365,414.794434 2834.023926,409.866486 
	C2833.658936,400.889038 2833.958496,391.884552 2834.057129,382.426575 
	C2845.000000,382.096252 2845.000000,382.096252 2845.000000,393.153015 
	C2845.000000,407.813416 2845.002197,422.473846 2844.999023,437.134247 
	C2844.997559,443.993164 2844.992920,444.001343 2838.343262,444.001923 
	C2804.357666,444.004913 2770.371826,444.093475 2736.387207,443.901733 
	C2731.552002,443.874451 2729.858887,444.844635 2729.871338,450.146118 
	C2730.056885,529.945007 2729.900879,609.744751 2730.130615,689.543396 
	C2730.158203,699.084045 2731.975586,708.619568 2732.908203,718.582947 
z"/>
<path fill="#444444" opacity="1.000000" stroke="none" 
	d="
M2112.964111,798.548950 
	C2132.094482,797.999329 2151.240967,797.885010 2170.387695,797.774597 
	C2172.500977,797.762390 2174.614258,797.772827 2177.407471,797.772827 
	C2176.441406,787.919800 2175.393799,778.870178 2174.701660,769.793396 
	C2173.664307,756.186584 2172.200439,742.565918 2172.096680,728.942200 
	C2171.592041,662.651123 2171.440186,596.357300 2171.251221,530.064148 
	C2171.188965,508.204895 2169.839600,486.494934 2164.957764,465.114075 
	C2164.180908,461.710907 2163.430176,458.301758 2162.743652,454.481750 
	C2165.821533,460.994446 2169.708496,467.684326 2171.635498,474.897797 
	C2175.337158,488.752747 2178.056885,502.878448 2180.899414,516.949402 
	C2181.745361,521.137390 2181.748291,525.512390 2181.948730,529.810547 
	C2182.366699,538.756470 2182.944580,547.708008 2182.956299,556.657837 
	C2183.041260,621.278931 2182.724121,685.902100 2183.178711,750.520081 
	C2183.305176,768.516846 2185.562256,786.500916 2186.915527,804.485291 
	C2187.409180,811.048340 2188.116211,817.595398 2188.774658,824.675354 
	C2186.986084,824.791077 2185.383301,824.983459 2183.780762,824.984985 
	C2162.962158,825.005371 2142.141846,824.870239 2121.325684,825.093567 
	C2116.438721,825.146057 2115.053711,823.329346 2114.889160,818.717346 
	C2114.654297,812.125732 2113.654053,805.561340 2112.964111,798.548950 
z"/>
<path fill="#444445" opacity="1.000000" stroke="none" 
	d="
M1876.887451,438.313660 
	C1885.024292,433.258911 1892.908936,427.858917 1901.501587,424.060272 
	C1935.043213,409.232208 1970.382446,403.695221 2006.837158,406.130463 
	C2030.073608,407.682739 2051.272949,415.007477 2067.469482,432.838715 
	C2076.666016,442.963531 2083.323486,454.607513 2086.224609,468.536194 
	C2085.026367,467.789948 2083.742920,466.756989 2082.789795,465.477875 
	C2069.542969,447.701965 2051.148438,438.390778 2029.875244,435.240448 
	C2016.512573,433.261597 2002.738525,432.558289 1989.250244,433.251587 
	C1964.029907,434.547882 1939.438110,439.840454 1916.187866,450.038666 
	C1907.119019,454.016571 1898.519653,459.063293 1889.693604,463.598083 
	C1888.560791,464.180084 1887.349976,464.610321 1885.571167,465.368286 
	C1882.623901,456.241852 1879.792236,447.473022 1876.887451,438.313660 
z"/>
<path fill="#444445" opacity="1.000000" stroke="none" 
	d="
M2659.948730,759.072449 
	C2666.682617,768.790833 2674.058350,778.329529 2684.114502,785.571228 
	C2699.291748,796.500732 2716.173828,803.217407 2734.582275,805.755066 
	C2744.580566,807.133423 2754.794189,808.272034 2764.828369,807.792847 
	C2785.413574,806.809875 2805.892822,804.415344 2825.611816,797.737793 
	C2828.249268,796.844727 2829.260010,795.669861 2829.086182,792.785583 
	C2828.526123,783.489807 2828.263184,774.176208 2828.003418,764.410522 
	C2830.817871,763.337891 2833.514648,762.724243 2836.449707,762.056335 
	C2836.999268,765.858704 2837.723389,769.245483 2837.943359,772.664673 
	C2838.983643,788.842896 2839.942139,805.027222 2840.707764,821.219971 
	C2840.757568,822.267029 2839.115723,824.097351 2837.963379,824.389404 
	C2826.127930,827.388367 2814.354492,831.000793 2802.317627,832.730042 
	C2790.082520,834.487732 2777.568359,834.927734 2765.181396,834.869812 
	C2741.365723,834.758423 2718.987305,828.717346 2698.791992,815.835938 
	C2682.302246,805.318176 2671.670898,789.937195 2664.266357,772.160034 
	C2662.556641,768.055664 2661.393799,763.723511 2659.948730,759.072449 
z"/>
<path fill="#434546" opacity="1.000000" stroke="none" 
	d="
M519.995300,802.536011 
	C548.296692,802.101379 576.617493,802.046936 604.938293,801.993591 
	C607.087219,801.989563 609.236084,801.993042 612.557678,801.993042 
	C537.946167,583.441284 463.570740,365.580963 389.176147,147.348907 
	C390.306763,148.398514 391.968781,149.643326 392.528717,151.267975 
	C399.763000,172.257263 406.810272,193.310883 413.964874,214.327774 
	C423.257141,241.624100 432.615143,268.898041 441.922791,296.189148 
	C451.008087,322.828339 460.040466,349.485565 469.142365,376.119049 
	C478.359680,403.090210 487.660858,430.032715 496.875153,457.004883 
	C506.027405,483.795319 515.083435,510.618652 524.242310,537.406799 
	C538.073547,577.860840 551.980469,618.289001 565.810913,658.743286 
	C575.023010,685.689026 584.130493,712.670471 593.335327,739.618652 
	C602.441223,766.277222 611.605469,792.915833 620.757629,819.558533 
	C622.083008,823.416870 623.483643,827.249268 625.170105,831.996216 
	C622.659363,831.996216 620.907410,831.996216 619.155396,831.996216 
	C591.002197,831.996216 562.848328,831.901917 534.696533,832.101135 
	C530.623840,832.129944 528.893860,830.887573 527.795532,827.028137 
	C525.485352,818.910217 522.640259,810.944580 519.995300,802.536011 
z"/>
<path fill="#444444" opacity="1.000000" stroke="none" 
	d="
M2581.969238,417.549316 
	C2583.220459,416.802124 2584.487061,416.274628 2585.755127,416.270691 
	C2602.677734,416.218262 2619.600586,416.232910 2636.523193,416.258118 
	C2637.480225,416.259552 2638.436768,416.497314 2639.952148,416.699677 
	C2639.952148,425.614655 2639.952148,434.354523 2639.895508,443.560089 
	C2622.215576,444.018311 2604.590576,443.899933 2586.969238,444.087860 
	C2582.975342,444.130463 2581.781738,442.838013 2581.926514,438.958405 
	C2582.186035,431.985321 2581.990967,424.995331 2581.969238,417.549316 
z"/>
<path fill="#444444" opacity="1.000000" stroke="none" 
	d="
M2730.016602,354.381592 
	C2726.569092,354.839264 2723.116211,354.839264 2718.993408,354.839264 
	C2718.993408,329.634003 2718.993408,304.761536 2719.067383,279.424316 
	C2722.543945,277.773254 2725.946533,276.586884 2730.011230,275.169769 
	C2730.011230,301.882904 2730.011230,327.903412 2730.016602,354.381592 
z"/>
<path fill="#434546" opacity="1.000000" stroke="none" 
	d="
M2381.077148,423.555725 
	C2378.655273,430.357452 2376.192139,436.700104 2373.728760,443.042755 
	C2372.934326,442.895691 2372.139893,442.748657 2371.345703,442.601593 
	C2370.569092,422.700256 2369.792480,402.798920 2369.080078,382.433746 
	C2372.108154,381.969910 2375.072266,381.969910 2379.072266,381.969910 
	C2379.738525,395.920654 2380.387207,409.508636 2381.077148,423.555725 
z"/>
<path fill="#E1C35C" opacity="1.000000" stroke="none" 
	d="
M3363.134033,148.744400 
	C3366.184082,149.322327 3367.078125,151.133591 3366.379150,154.341888 
	C3365.661377,157.637894 3365.720703,161.103256 3365.278320,164.887756 
	C3364.430664,159.909958 3363.744385,154.538879 3363.134033,148.744400 
z"/>
<path fill="#E1C35C" opacity="1.000000" stroke="none" 
	d="
M3478.924316,871.260010 
	C3473.041504,865.736572 3476.139404,858.692566 3476.611328,851.673706 
	C3477.512451,857.848877 3478.249268,864.341125 3478.924316,871.260010 
z"/>
<path fill="#E1C35C" opacity="1.000000" stroke="none" 
	d="
M3462.359863,307.095032 
	C3462.599854,301.090851 3460.249512,294.507996 3464.685547,288.554230 
	C3464.149170,294.491333 3463.442139,300.707336 3462.359863,307.095032 
z"/>
<path fill="#E1C35C" opacity="1.000000" stroke="none" 
	d="
M3464.760986,709.834473 
	C3463.759033,707.843384 3462.503418,705.581177 3462.091797,703.174561 
	C3461.619873,700.416565 3461.897217,697.530273 3461.894775,694.213013 
	C3462.633057,695.297668 3463.703125,696.814026 3463.942139,698.451721 
	C3464.475342,702.102112 3464.593018,705.813171 3464.760986,709.834473 
z"/>
<path fill="#0C62A9" opacity="1.000000" stroke="none" 
	d="
M1659.099854,775.448364 
	C1659.325195,783.078552 1659.479126,791.174438 1659.440308,799.632507 
	C1659.174561,791.967834 1659.101562,783.940918 1659.099854,775.448364 
z"/>
<path fill="#E1C35C" opacity="1.000000" stroke="none" 
	d="
M3365.117920,167.755524 
	C3365.288574,171.579193 3365.388428,175.827118 3365.322266,180.371704 
	C3365.119629,176.505508 3365.083496,172.342636 3365.117920,167.755524 
z"/>
<path fill="#094D85" opacity="1.000000" stroke="none" 
	d="
M1182.713257,712.637817 
	C1182.488892,711.216187 1182.395020,709.373047 1182.501953,707.235474 
	C1182.749756,708.699463 1182.796753,710.457825 1182.713257,712.637817 
z"/>
<path fill="#042136" opacity="1.000000" stroke="none" 
	d="
M1180.365479,802.770630 
	C1180.108643,801.938965 1180.036743,800.853271 1180.079834,799.372314 
	C1180.313354,800.156921 1180.431763,801.336731 1180.365479,802.770630 
z"/>
<path fill="#042136" opacity="1.000000" stroke="none" 
	d="
M1180.363281,793.804626 
	C1180.111084,793.258057 1180.035889,792.489807 1180.071045,791.347229 
	C1180.300903,791.842957 1180.420654,792.712891 1180.363281,793.804626 
z"/>
<path fill="#444445" opacity="1.000000" stroke="none" 
	d="
M2086.088379,469.221649 
	C2086.400635,469.418427 2086.711426,469.924316 2086.986328,470.752167 
	C2086.662842,470.559692 2086.375000,470.045197 2086.088379,469.221649 
z"/>
<path fill="#444445" opacity="1.000000" stroke="none" 
	d="
M1842.193604,745.873840 
	C1842.661377,746.129639 1843.086792,746.792419 1843.435303,747.853882 
	C1842.956055,747.595337 1842.553711,746.938049 1842.193604,745.873840 
z"/>
<path fill="#444444" opacity="1.000000" stroke="none" 
	d="
M2162.877686,453.797089 
	C2162.545166,453.662567 2162.212402,453.213654 2161.831543,452.466522 
	C2162.148193,452.606445 2162.512939,453.044556 2162.877686,453.797089 
z"/>
<path fill="#042136" opacity="1.000000" stroke="none" 
	d="
M1376.634521,697.102783 
	C1376.806030,697.121582 1376.884888,697.280884 1377.015381,697.701782 
	C1376.891846,697.723389 1376.716919,697.483398 1376.634521,697.102783 
z"/>
<path fill="#042136" opacity="1.000000" stroke="none" 
	d="
M1461.094604,715.904297 
	C1460.963379,715.789001 1460.991699,715.615784 1461.131348,715.204224 
	C1461.312622,715.168335 1461.407349,715.367065 1461.439575,715.575439 
	C1461.451904,715.654236 1461.320068,715.755432 1461.094604,715.904297 
z"/>
<path fill="#042136" opacity="1.000000" stroke="none" 
	d="
M1378.680786,781.117554 
	C1378.869019,781.098389 1378.977417,781.226196 1379.170410,781.590759 
	C1379.036865,781.639832 1378.818848,781.452209 1378.680786,781.117554 
z"/>
<path fill="#042136" opacity="1.000000" stroke="none" 
	d="
M1180.350586,786.858765 
	C1180.244263,786.706177 1180.307739,786.374939 1180.601562,785.901978 
	C1180.834351,786.102966 1180.730591,786.409546 1180.350586,786.858765 
z"/>
<path fill="#042136" opacity="1.000000" stroke="none" 
	d="
M1180.298096,815.927734 
	C1180.128906,815.859192 1180.080933,815.679138 1180.107422,815.229614 
	C1180.480713,815.184204 1180.559937,815.469604 1180.298096,815.927734 
z"/>
<path fill="#0C62A9" opacity="1.000000" stroke="none" 
	d="
M1659.240234,821.231140 
	C1659.501221,821.111938 1659.683716,821.276794 1659.910889,821.654724 
	C1659.635010,821.927795 1659.370361,821.810242 1659.240234,821.231140 
z"/>
<path fill="#000000" opacity="0.000000" stroke="none" 
	d="
M332.851929,232.975937 
	C343.533875,267.871704 353.724365,302.927612 365.029419,337.620361 
	C377.507751,375.913696 390.967712,413.887878 404.079742,451.973694 
	C411.037018,472.182098 418.165344,492.331604 425.208099,512.510620 
	C425.690918,513.893860 426.104370,515.301270 426.638824,516.975403 
	C365.555237,516.975403 304.764191,516.975403 243.657181,516.595825 
	C247.906067,503.102478 252.584518,490.026917 257.014374,476.867676 
	C269.904968,438.575226 282.922150,400.322937 295.445740,361.910187 
	C303.637817,336.783295 311.318481,311.480896 318.734711,286.112823 
	C323.875610,268.527740 328.175995,250.696945 332.851929,232.975937 
z"/>
<path fill="#444445" opacity="1.000000" stroke="none" 
	d="
M332.896545,232.586151 
	C328.175995,250.696945 323.875610,268.527740 318.734711,286.112823 
	C311.318481,311.480896 303.637817,336.783295 295.445740,361.910187 
	C282.922150,400.322937 269.904968,438.575226 257.014374,476.867676 
	C252.584518,490.026917 247.906067,503.102478 243.193939,516.544556 
	C235.921570,516.872925 228.796432,516.872925 220.948486,516.872925 
	C254.893677,409.741821 296.990295,305.537323 321.498230,195.784424 
	C322.312500,195.815369 323.126770,195.846329 323.941040,195.877274 
	C326.941101,207.983643 329.941162,220.089996 332.896545,232.586151 
z"/>
<path fill="#000000" opacity="0.000000" stroke="none" 
	d="
M2092.880371,599.043152 
	C2092.919434,617.690613 2093.585938,636.363953 2092.821045,654.978333 
	C2092.058838,673.518494 2083.968506,689.747864 2073.008301,704.319214 
	C2058.833008,723.164612 2039.795776,735.533569 2017.312988,742.081787 
	C2007.990845,744.796814 1998.046143,745.344543 1988.407837,747.012390 
	C1977.485718,748.902344 1966.977661,746.860168 1956.508301,744.032410 
	C1940.893555,739.814941 1928.193359,731.481628 1919.054932,717.127136 
	C1918.949951,704.864624 1918.031494,693.234436 1919.239746,681.829590 
	C1920.828491,666.833008 1927.721313,653.739990 1937.945190,642.580017 
	C1952.992188,626.155396 1972.469482,617.244934 1993.266113,611.038147 
	C2025.741577,601.345703 2059.211426,599.199829 2092.880371,599.043152 
z"/>
<path fill="#444445" opacity="1.000000" stroke="none" 
	d="
M2092.985840,598.582031 
	C2059.211426,599.199829 2025.741577,601.345703 1993.266113,611.038147 
	C1972.469482,617.244934 1952.992188,626.155396 1937.945190,642.580017 
	C1927.721313,653.739990 1920.828491,666.833008 1919.239746,681.829590 
	C1918.031494,693.234436 1918.949951,704.864624 1918.865967,716.849731 
	C1912.166382,708.199036 1908.962036,697.806824 1907.413696,686.799316 
	C1904.011230,662.610596 1907.526489,639.898926 1922.659424,620.047424 
	C1934.772217,604.157349 1951.533813,594.796631 1969.875122,587.810303 
	C1995.053345,578.219604 2021.330322,574.434937 2048.011230,572.973755 
	C2061.468506,572.236877 2074.968262,572.310425 2088.441650,571.823364 
	C2092.136475,571.689819 2093.448730,572.882080 2093.297119,576.640259 
	C2093.008789,583.791565 2093.136230,590.959717 2092.985840,598.582031 
z"/>
</svg>