<svg xmlns="http://www.w3.org/2000/svg" xmlns:xlink="http://www.w3.org/1999/xlink" version="1.1" width="2560" height="1440" viewBox="0 0 2560 1440" xml:space="preserve">
<desc>Created with Fabric.js 3.5.0</desc>
<defs>
</defs>
<rect x="0" y="0" width="100%" height="100%" fill="#ffffff"/>
<g transform="matrix(17.2538 5.369 -5.369 17.2538 1168.6312 1057.5887)" id="806002" clip-path="url(#CLIPPATH_4)">
<clipPath id="CLIPPATH_4">
	<rect transform="matrix(1 0 0 1 -0.0001 -0.0005)" id="clip0_302_78" x="-79.5" y="-79.5" rx="0" ry="0" width="159" height="159"/>
</clipPath>
<path style="stroke: none; stroke-width: 1; stroke-dasharray: none; stroke-linecap: butt; stroke-dashoffset: 0; stroke-linejoin: miter; stroke-miterlimit: 4; is-custom-font: none; font-file-url: none; fill: rgb(0,153,255); fill-rule: nonzero; opacity: 1;" vector-effect="non-scaling-stroke" transform=" translate(-79.5001, -79.5005)" d="M 158.004 77.1235 L 81.8028 0.990297 C 80.4947 -0.256857 78.4373 -0.256857 77.1292 0.990297 L 0.996304 77.0555 C 0.980111 77.0714 0.964236 77.0873 0.94836 77.1035 C -0.334353 78.4129 -0.313081 80.5141 0.996304 81.7968 L 77.1971 157.93 C 77.8016 158.558 78.6287 158.923 79.5 158.946 C 80.3836 158.951 81.2345 158.611 81.8708 157.998 L 158.004 81.8644 C 158.02 81.8486 158.036 81.8327 158.052 81.8165 C 159.335 80.5078 159.313 78.4062 158.004 77.1235 Z" stroke-linecap="round"/>
</g>
<g transform="matrix(9.8793 0 0 9.8793 739.9306 749.052)" id="927483" clip-path="url(#CLIPPATH_5)">
<clipPath id="CLIPPATH_5">
	<rect transform="matrix(1 0 0 1 0.0001 0.0002)" id="clip0_302_100" x="-79" y="-79" rx="0" ry="0" width="158" height="158"/>
</clipPath>
<path style="stroke: none; stroke-width: 1; stroke-dasharray: none; stroke-linecap: butt; stroke-dashoffset: 0; stroke-linejoin: miter; stroke-miterlimit: 4; is-custom-font: none; font-file-url: none; fill: rgb(0,153,255); fill-rule: nonzero; opacity: 1;" vector-effect="non-scaling-stroke" transform=" translate(-78.9999, -78.9998)" d="M 154.685 0.000367219 H 3.31409 C 1.48378 0.000367219 0 1.48415 0 3.31478 V 154.686 C 0 156.516 1.48378 158 3.31409 158 H 154.685 C 156.515 158 157.999 156.516 157.999 154.686 V 3.31478 C 158 3.26912 158 3.22347 157.999 3.17813 C 157.962 1.38523 156.478 -0.0373614 154.685 0.000367219 Z" stroke-linecap="round"/>
</g>
</svg>